<svg id="Layer_2" data-name="Layer 2" xmlns="http://www.w3.org/2000/svg" viewBox="0 0 2732 2048"><defs><style>.cls-1{fill:none;}</style></defs><title>LOGO STATUS QUO SVG</title><rect x="1126.08" y="13.93" width="42.48" height="986.27" transform="translate(2398.78 592.59) rotate(160.07)"/><rect x="802.21" y="338.08" width="41.08" height="986.27" transform="translate(-239.18 1321.28) rotate(-70.07)"/><rect class="cls-1" x="486.09" y="170.97" width="999.32" height="999.32" transform="translate(2156.99 447.8) rotate(135)"/><rect class="cls-1" x="486.09" y="170.97" width="999.32" height="999.32" transform="translate(2156.99 447.8) rotate(135)"/><rect x="1834.81" y="339.06" width="42.48" height="986.27" transform="translate(1706.53 2860.77) rotate(-109.93)"/><rect x="1511.36" y="14.49" width="41.08" height="986.27" transform="translate(264.86 -491.88) rotate(19.93)"/><rect class="cls-1" x="1192.84" y="170.97" width="999.32" height="999.32" transform="translate(2415.07 2341.61) rotate(-135)"/><rect class="cls-1" x="1192.84" y="170.97" width="999.32" height="999.32" transform="translate(2415.07 2341.61) rotate(-135)"/><rect x="1512.54" y="1047.79" width="42.48" height="986.27" transform="translate(-433.47 615.26) rotate(-19.93)"/><rect x="1837.8" y="723.64" width="41.08" height="986.27" transform="translate(3635.81 -115.36) rotate(109.93)"/><rect class="cls-1" x="1195.68" y="877.71" width="999.32" height="999.32" transform="translate(-477.39 1602.21) rotate(-45)"/><rect class="cls-1" x="1195.68" y="877.71" width="999.32" height="999.32" transform="translate(-477.39 1602.21) rotate(-45)"/><rect x="803.81" y="722.67" width="42.48" height="986.27" transform="translate(1686.71 25.67) rotate(70.07)"/><rect x="1128.65" y="1047.23" width="41.08" height="986.27" transform="translate(1704.35 3380.26) rotate(-160.07)"/><rect class="cls-1" x="488.94" y="877.71" width="999.32" height="999.32" transform="translate(1263.5 -295.62) rotate(45)"/><rect class="cls-1" x="488.94" y="877.71" width="999.32" height="999.32" transform="translate(1263.5 -295.62) rotate(45)"/></svg>